<?xml version="1.0" encoding="utf-8"?>
<!-- Generator: Adobe Illustrator 19.2.1, SVG Export Plug-In . SVG Version: 6.00 Build 0)  -->
<svg version="1.1" id="Capa_1" xmlns="http://www.w3.org/2000/svg" xmlns:xlink="http://www.w3.org/1999/xlink" x="0px" y="0px"
	 viewBox="0 0 100 100" style="enable-background:new 0 0 100 100;" xml:space="preserve">
<style type="text/css">
	.st0{fill:#59D4E9;}
</style>
<g>
	<g>
		<path class="st0" d="M33,61.2c-4.1,0-8.1-0.9-11.9-2.7c-6.8-3.2-11.9-8.8-14.5-15.9C4,35.6,4.4,28,7.6,21.2
			c6.6-14,23.3-20.1,37.4-13.5C59,14.2,65,31,58.5,45c-3.2,6.8-8.8,11.9-15.9,14.5C39.5,60.6,36.2,61.2,33,61.2z M33.1,10.5
			c-8.5,0-16.6,4.8-20.5,13C10,29,9.8,35.1,11.8,40.8C13.9,46.4,18,51,23.5,53.5c5.5,2.6,11.6,2.8,17.3,0.8
			c5.7-2.1,10.2-6.2,12.8-11.6l0,0c5.3-11.3,0.4-24.7-10.9-30C39.5,11.2,36.3,10.5,33.1,10.5z"/>
	</g>
	<g>
		<path class="st0" d="M49.5,57.3C62.3,69.5,75.1,81.7,88,93.8c3.9,3.7,9.7-2.2,5.9-5.9C81,75.8,68.2,63.6,55.3,51.4
			C51.5,47.7,45.6,53.6,49.5,57.3L49.5,57.3z"/>
	</g>
</g>
</svg>
