<?xml version="1.0" encoding="utf-8"?>
<!-- Generator: Adobe Illustrator 19.2.1, SVG Export Plug-In . SVG Version: 6.00 Build 0)  -->
<svg version="1.1" id="Capa_1" xmlns="http://www.w3.org/2000/svg" xmlns:xlink="http://www.w3.org/1999/xlink" x="0px" y="0px"
	 viewBox="0 0 100 100" style="enable-background:new 0 0 100 100;" xml:space="preserve">
<style type="text/css">
	.st0{fill:#59D4E9;}
</style>
<path class="st0" d="M50,65c12.7,0,23-12.6,23-28.2C73,21.3,62.7,8.7,50,8.7c-6.3,0-12.1,3-16.5,8.5C29.3,22.4,27,29.4,27,36.9
	C27,52.4,37.3,65,50,65 M50,13.8c9.9,0,17.9,10.3,17.9,23c0,12.7-8,23-17.9,23c-9.9,0-17.9-10.3-17.9-23
	C32.1,24.2,40.1,13.8,50,13.8 M67.9,59.9c-1.4,0-2.5,1.2-2.5,2.6c0,1.4,1.1,2.6,2.5,2.6c9.9,0,17.9,8.1,17.9,18
	c0,1.4-1.1,2.6-2.6,2.6H16.7c-1.4,0-2.5-1.2-2.5-2.6c0-9.9,8-18,17.9-18c1.4,0,2.6-1.2,2.6-2.6c0-1.4-1.1-2.6-2.6-2.6
	c-12.7,0-23,10.7-23,23.4c0,4.2,3.5,8,7.7,8h66.6c4.2,0,7.7-3.8,7.7-8C91,70.6,80.6,59.9,67.9,59.9"/>
</svg>
