<?xml version="1.0" encoding="utf-8"?>
<!-- Generator: Adobe Illustrator 19.2.1, SVG Export Plug-In . SVG Version: 6.00 Build 0)  -->
<svg version="1.1" id="Capa_1" xmlns="http://www.w3.org/2000/svg" xmlns:xlink="http://www.w3.org/1999/xlink" x="0px" y="0px"
	 viewBox="0 0 100 100" style="enable-background:new 0 0 100 100;" xml:space="preserve">
<style type="text/css">
	.st0{fill:#59D4E9;}
</style>
<g>
	<path class="st0" d="M79.7,92.5h0.6c2.1,0,4-1.4,5.3-3c1.4-1.5,2-3.7,1.9-5.8c-0.3-4.2-4-7.6-8.3-7.3c-4.3,0.3-7.5,4.4-7.2,8.6
		C72.2,89,75.6,92.5,79.7,92.5"/>
	<path class="st0" d="M7,13.9h9.9l14,50.3c0.4,1.5,1.8,2.1,3.3,2.1h43.2c1.4,0,2.6-0.1,3.2-1.4l15.7-35.8c0.5-1.1,0.3-1.7-0.3-2.6
		c-0.6-1-1.7-0.9-2.9-0.9H45.4c-1.9,0-3.4,1-3.4,2.9c0,1.9,1.5,2.9,3.4,2.9h42.4L75.1,60.4H36.8l-14-50.3c-0.4-1.5-1.8-2.1-3.3-2.1
		H7c-1.9,0-3.4,1-3.4,2.9C3.5,12.9,5.1,13.9,7,13.9"/>
	<path class="st0" d="M30.9,91.8c4.3,0,7.8-3.5,7.8-7.8c0-4.3-3.5-7.8-7.8-7.8c-4.3,0-7.8,3.5-7.8,7.8
		C23.1,88.3,26.6,91.8,30.9,91.8"/>
</g>
</svg>
