<?xml version="1.0" encoding="utf-8"?>
<!-- Generator: Adobe Illustrator 19.2.1, SVG Export Plug-In . SVG Version: 6.00 Build 0)  -->
<svg version="1.1" id="Capa_1" xmlns="http://www.w3.org/2000/svg" xmlns:xlink="http://www.w3.org/1999/xlink" x="0px" y="0px"
	 viewBox="0 0 100 100" style="enable-background:new 0 0 100 100;" xml:space="preserve">
<style type="text/css">
	.st0{fill:#FFFFFF;}
</style>
<path class="st0" d="M92.1,42.8C78.4,71.8,74,72.3,71.3,72.3H45.1c-9.2,0-16.2-5.9-17.9-14.3c-0.1-0.3-5.3-26-6.6-33.1
	c-0.6-3.5-2.3-6-8.3-6c-2.7,0-4.9-2.3-4.9-5c0-2.7,2.2-4.9,4.9-4.9c9.9,0,16.3,4.9,17.9,13.8c1.3,7,6.5,32.5,6.5,32.8
	c1,5.1,5.7,6,8.3,6H70c2.7-3.6,8.8-14,13.2-23.5c1.2-2.5,4.1-3.3,6.5-2.1C92.3,37.2,93.3,40.3,92.1,42.8 M41.8,74.6
	c-4.5,0-8.2,3.7-8.2,8.2c0,4.5,3.7,8.2,8.2,8.2c4.5,0,8.2-3.7,8.2-8.2C50,78.2,46.3,74.6,41.8,74.6 M71.3,74.6
	c-4.5,0-8.2,3.7-8.2,8.2c0,4.5,3.7,8.2,8.2,8.2c4.5,0,8.2-3.7,8.2-8.2C79.5,78.2,75.8,74.6,71.3,74.6 M55.4,47.8
	c0.3,0.3,0.7,0.4,1.1,0.4c0.4,0,0.8-0.1,1.1-0.4c0.3-0.3,9.3-9,14.2-16.3c0.4-0.6,0.4-0.9,0.1-1.5c-0.3-0.6-0.9-0.6-1.6-0.6h-7.3
	c0,0-0.7-14.4-1.2-15.1c-0.7-1-3.5-1.8-5.3-1.8c-1.8,0-4.7,0.9-5.4,1.9c-0.5,0.6-1.1,15-1.1,15h-7.4c-0.7,0-1.3,0-1.6,0.6
	c-0.3,0.6-0.3,1.1,0.1,1.7C46.1,39,55.1,47.6,55.4,47.8"/>
</svg>
